<svg xmlns="http://www.w3.org/2000/svg" viewBox="0 0 25 25"><defs><style>.cls-1{fill:#5e6268;}</style></defs><g id="graph-bar"><path class="cls-1" d="M23.5,23H2V1.5a.5.5,0,0,0-1,0v22a.5.5,0,0,0,.5.5h22a.5.5,0,0,0,0-1Z"/><path class="cls-1" d="M4.5,22h4a.5.5,0,0,0,.5-.5v-10a.5.5,0,0,0-.5-.5h-4a.5.5,0,0,0-.5.5v10A.5.5,0,0,0,4.5,22ZM5,12H8v9H5Z"/><path class="cls-1" d="M10.5,22h4a.5.5,0,0,0,.5-.5V6.5a.5.5,0,0,0-.5-.5h-4a.5.5,0,0,0-.5.5v15A.5.5,0,0,0,10.5,22ZM11,7h3V21H11Z"/><path class="cls-1" d="M16.5,22h4a.5.5,0,0,0,.5-.5V9.5a.5.5,0,0,0-.5-.5h-4a.5.5,0,0,0-.5.5v12A.5.5,0,0,0,16.5,22ZM17,10h3V21H17Z"/></g></svg>