<svg version="1.1" id="Icon_Set" xmlns="http://www.w3.org/2000/svg" x="0" y="0" viewBox="18 20 220 220" style="enable-background:new 0 0 256 256" xml:space="preserve"><style>.st0{fill:#4c4372}.st2{fill:#fd919e}.st4{fill:#a4cff2}.st5{fill:#fff}.st6{fill:#7babf1}</style><circle cx="128" cy="128" r="103.5" style="fill:#f0c48a"/><path class="st2" d="M182.107 182.238H102.27l-11.318 6.178 11.318 6.179h79.837a6.178 6.178 0 1 0 0-12.357z"/><path style="fill:#e8677d" d="M159.985 182.237h14.69v12.358h-14.69z"/><path class="st4" d="M175.929 53.052h-8.438v92.113h8.438c6.825 0 12.357 5.533 12.357 12.357V65.409c0-6.825-5.532-12.357-12.357-12.357z"/><path class="st6" d="M177.888 53.222v92.113c5.892.941 10.398 6.031 10.398 12.187V65.409c0-6.156-4.506-11.246-10.398-12.187z"/><path d="M175.929 145.165h-8.438V77.767H72.302c-6.825 0-12.357 5.533-12.357 12.357v92.113c0-6.824 5.533-12.357 12.357-12.357h103.626c6.825 0 12.357-5.532 12.357-12.357.001-6.825-5.532-12.358-12.356-12.358z" style="fill:#d3e6f8"/><path class="st4" d="M158.287 101.204v68.676h17.642c6.825 0 12.357-5.532 12.357-12.357 0-6.824-5.533-12.357-12.357-12.357h-8.438V77.767h-9.203v23.437"/><path class="st5" d="m158.287 120.768-17.086-16.745-17.086-16.745-17.085 16.745-17.086 16.745h12.915v33.943h42.512v-33.943z"/><path class="st6" d="M80.74 194.595h-8.438c-6.825 0-12.357-5.533-12.357-12.358 0-6.824 5.533-12.357 12.357-12.357h8.438v24.715z"/><path class="st0" d="M59.945 185.237a3 3 0 0 1-3-3V90.124c0-8.468 6.889-15.357 15.357-15.357h95.188a3 3 0 0 1 3 3v64.399h5.438c8.468 0 15.357 6.889 15.357 15.357s-6.889 15.357-15.357 15.357H72.302c-5.16 0-9.357 4.198-9.357 9.357a3 3 0 0 1-3 3zm12.357-104.47c-5.16 0-9.357 4.198-9.357 9.357v79.943a15.28 15.28 0 0 1 9.357-3.188h103.626c5.16 0 9.357-4.198 9.357-9.357s-4.198-9.357-9.357-9.357h-8.438a3 3 0 0 1-3-3V80.767H72.302z"/><path class="st0" d="M59.975 185.238c-1.657 0-3.005-1.343-3.005-3s1.338-3 2.995-3h.01a3 3 0 1 1 0 6z"/><path class="st0" d="M80.74 197.595h-8.438c-8.468 0-15.357-6.89-15.357-15.358s6.889-15.357 15.357-15.357h8.438a3 3 0 0 1 3 3v24.715a3 3 0 0 1-3 3zm-8.438-24.715c-5.16 0-9.357 4.197-9.357 9.357 0 5.16 4.198 9.358 9.357 9.358h5.438V172.88h-5.438zM188.286 160.522a3 3 0 0 1-3-3c0-5.16-4.198-9.357-9.357-9.357h-8.438a3 3 0 0 1-3-3V53.052a3 3 0 0 1 3-3h8.438c8.468 0 15.357 6.889 15.357 15.357v92.113a3 3 0 0 1-3 3zm-17.796-18.356h5.438c3.519 0 6.765 1.189 9.357 3.188V65.409c0-5.16-4.198-9.357-9.357-9.357h-5.438v86.114zM158.155 157.711H80.74a3 3 0 0 1-3-3V92.062a3 3 0 1 1 6 0v59.649h74.415a3 3 0 1 1 0 6z"/><path class="st0" d="M145.371 157.711h-42.512a3 3 0 0 1-3-3v-30.943h-9.916a2.999 2.999 0 0 1-2.099-5.143l34.171-33.489a2.998 2.998 0 0 1 4.199 0l34.172 33.489a3 3 0 0 1-2.099 5.143h-9.916v30.943a3 3 0 0 1-3 3zm-39.512-6h36.512v-30.943a3 3 0 0 1 3-3h5.569l-26.825-26.289-26.824 26.289h5.568a3 3 0 0 1 3 3v30.943z"/><path class="st0" d="M132.512 157.711h-16.793a3 3 0 0 1-3-3v-22.066a3 3 0 0 1 3-3h16.793a3 3 0 0 1 3 3v22.066a3 3 0 0 1-3 3zm-13.793-6h10.793v-16.066h-10.793v16.066zM145.371 123.768h-42.512a3 3 0 1 1 0-6h42.512a3 3 0 1 1 0 6z"/><path class="st5" d="M182.107 182.238h-7.432v12.357h7.432a6.178 6.178 0 1 0 0-12.357z"/><path class="st0" d="M182.107 197.595H102.27a3 3 0 0 1-1.438-.367l-11.318-6.179a3.001 3.001 0 0 1 0-5.266l11.318-6.178a2.997 2.997 0 0 1 1.438-.367h79.837c5.061 0 9.179 4.117 9.179 9.178 0 5.062-4.118 9.179-9.179 9.179zm-79.071-6h79.071a3.182 3.182 0 0 0 3.179-3.179 3.182 3.182 0 0 0-3.179-3.178h-79.071l-5.823 3.178 5.823 3.179z"/><path class="st0" d="M174.676 205.948h-25.188a3 3 0 1 1 0-6h22.188v-17.71a3 3 0 1 1 6 0v20.71a3 3 0 0 1-3 3zM102.271 197.595a3 3 0 0 1-1.438-.367l-11.318-6.179a3.001 3.001 0 0 1 0-5.266l11.318-6.178a3 3 0 0 1 4.437 2.633v12.357a3.001 3.001 0 0 1-2.999 3zm-5.058-9.179 2.057 1.123v-2.246l-2.057 1.123z"/><path class="st0" d="M102.27 194.595v-12.357l-11.317 6.178zM182.107 197.595h-7.432a3 3 0 0 1-3-3v-12.357a3 3 0 0 1 3-3h7.432c5.061 0 9.179 4.117 9.179 9.178 0 5.062-4.118 9.179-9.179 9.179zm-4.431-6h4.432a3.182 3.182 0 0 0 3.179-3.179 3.182 3.182 0 0 0-3.179-3.178h-4.432v6.357z"/><path class="st2" d="M47.714 92.018v62.738h62.838L47.714 92.018zm12.23 40.19v-10.352l20.736 20.703H59.944v-10.351z"/><path class="st0" d="M110.552 157.756H47.714a3 3 0 0 1-3-3V92.018a2.998 2.998 0 0 1 5.12-2.123l62.838 62.738a3 3 0 0 1-2.12 5.123zm-59.838-6h52.587L50.714 99.252v52.504zm29.966-6.197H59.944a3 3 0 0 1-3-3v-20.703a2.998 2.998 0 0 1 5.12-2.123L82.8 140.436a2.999 2.999 0 0 1-2.12 5.123zm-17.736-6h10.485l-10.485-10.468v10.468z"/></svg>